<svg width="24" height="24" viewBox="0 0 24 24" fill="current" xmlns="http://www.w3.org/2000/svg">
<path d="M1 22.5L6 8.5L15 17.5L1 22.5ZM13.55 13.05L12.5 12L18.1 6.4C18.6333 5.86667 19.275 5.6 20.025 5.6C20.775 5.6 21.4167 5.86667 21.95 6.4L22.55 7L21.5 8.05L20.9 7.45C20.6667 7.21667 20.375 7.1 20.025 7.1C19.675 7.1 19.3833 7.21667 19.15 7.45L13.55 13.05ZM9.55 9.05L8.5 8L9.1 7.4C9.33333 7.16667 9.45 6.88333 9.45 6.55C9.45 6.21667 9.33333 5.93333 9.1 5.7L8.45 5.05L9.5 4L10.15 4.65C10.6833 5.18333 10.95 5.81667 10.95 6.55C10.95 7.28333 10.6833 7.91667 10.15 8.45L9.55 9.05ZM11.55 11.05L10.5 10L14.1 6.4C14.3333 6.16667 14.45 5.875 14.45 5.525C14.45 5.175 14.3333 4.88333 14.1 4.65L12.5 3.05L13.55 2L15.15 3.6C15.6833 4.13333 15.95 4.775 15.95 5.525C15.95 6.275 15.6833 6.91667 15.15 7.45L11.55 11.05ZM15.55 15.05L14.5 14L16.1 12.4C16.6333 11.8667 17.275 11.6 18.025 11.6C18.775 11.6 19.4167 11.8667 19.95 12.4L21.55 14L20.5 15.05L18.9 13.45C18.6667 13.2167 18.375 13.1 18.025 13.1C17.675 13.1 17.3833 13.2167 17.15 13.45L15.55 15.05Z" fill="current"/>
</svg>
