<svg width="128" height="128" viewBox="0 0 128 128" fill="none" xmlns="http://www.w3.org/2000/svg">
<rect width="128" height="128" fill="#BABFC4"/>
<path d="M101.5 94.4876C96.676 85.9419 89.143 79.2832 80.1138 75.5834C84.6039 72.1845 87.9206 67.4458 89.5942 62.0386C91.2677 56.6314 91.2131 50.8297 89.4382 45.4556C87.6634 40.0814 84.2581 35.407 79.7049 32.0947C75.1516 28.7824 69.6812 27 64.0686 27C58.4559 27 52.9855 28.7824 48.4323 32.0947C43.879 35.407 40.4738 40.0814 38.6989 45.4556C36.924 50.8297 36.8695 56.6314 38.543 62.0386C40.2165 67.4458 43.5333 72.1845 48.0234 75.5834C38.9942 79.2832 31.4611 85.9419 26.6368 94.4876C26.3379 94.9728 26.1387 95.5136 26.051 96.078C25.9633 96.6424 25.9889 97.2189 26.1264 97.7731C26.2638 98.3273 26.5102 98.8479 26.851 99.3041C27.1918 99.7602 27.62 100.143 28.1101 100.428C28.6002 100.714 29.1423 100.898 29.704 100.968C30.2658 101.038 30.8357 100.993 31.3801 100.837C31.9244 100.68 32.432 100.415 32.8727 100.056C33.3133 99.6974 33.678 99.253 33.9451 98.7493C40.321 87.6263 51.5808 80.9922 64.0686 80.9922C76.5564 80.9922 87.8162 87.6299 94.192 98.7493C94.7709 99.6888 95.689 100.364 96.7523 100.633C97.8157 100.901 98.9408 100.742 99.8899 100.189C100.839 99.6353 101.538 98.7311 101.838 97.6671C102.139 96.6032 102.018 95.463 101.5 94.4876ZM45.7714 54.0015C45.7714 50.3489 46.8445 46.7785 48.8551 43.7415C50.8656 40.7046 53.7232 38.3376 57.0666 36.9398C60.4099 35.5421 64.0889 35.1763 67.6382 35.8889C71.1875 36.6015 74.4477 38.3603 77.0066 40.943C79.5655 43.5257 81.3081 46.8163 82.0141 50.3986C82.7201 53.981 82.3578 57.6941 80.9729 61.0686C79.5881 64.4431 77.2429 67.3273 74.2339 69.3565C71.225 71.3857 67.6874 72.4688 64.0686 72.4688C59.2176 72.4632 54.5669 70.5157 51.1367 67.0536C47.7065 63.5916 45.777 58.8976 45.7714 54.0015Z" fill="white"/>
</svg>
